<svg version="1.1" id="Layer_1" xmlns="http://www.w3.org/2000/svg" xmlns:xlink="http://www.w3.org/1999/xlink" x="0px" y="0px"
	 width="100%" viewBox="150 160 740 190" enable-background="new 0 0 1024 544" xml:space="preserve">
<path fill="#16a34a" opacity="1.000000" stroke="none" 
	d="
M303.718262,183.158447 
	C315.933746,189.812866 326.376556,198.028198 333.476746,209.715698 
	C340.994324,222.090225 334.500458,238.124176 320.683960,241.733597 
	C312.738037,243.809357 305.535187,241.660385 299.088470,236.729950 
	C292.202881,231.463837 285.273102,226.238098 277.649780,222.075989 
	C264.486633,214.889328 250.503235,221.245163 247.867706,235.879959 
	C246.497559,243.488144 249.441895,249.983810 255.562531,254.769745 
	C259.891449,258.154724 264.427673,261.274902 268.878754,264.503113 
	C270.642670,265.782440 272.365326,267.117065 273.402557,269.085785 
	C275.057861,272.227753 274.769470,275.331787 272.395447,277.888885 
	C269.955505,280.517029 266.720154,281.057739 263.773743,278.970245 
	C256.712250,273.967285 249.222885,269.461121 242.989746,263.415894 
	C230.496475,251.299271 229.400238,231.255829 240.185257,217.343338 
	C250.983566,203.413696 269.901367,199.923218 285.473694,209.327835 
	C292.164001,213.368317 298.446289,218.085190 304.903717,222.509735 
	C306.552002,223.639145 308.140839,224.855499 309.792328,225.980011 
	C313.298676,228.367477 316.807709,228.276535 319.776550,225.262512 
	C322.804993,222.187988 321.820801,218.778778 319.559814,215.735641 
	C311.152649,204.420151 300.211151,196.510666 286.771667,192.302673 
	C245.246063,179.300797 203.048340,208.698837 201.091370,252.116898 
	C200.855850,257.342010 199.768906,260.678680 194.074387,261.330475 
	C191.652924,261.607605 189.674591,263.616516 186.041199,263.713928 
	C184.338821,237.975616 191.894806,215.816910 210.018494,197.617310 
	C234.315735,173.218323 271.446411,167.595718 303.718262,183.158447 
z"/>
<path fill="#16a34a" opacity="1.000000" stroke="none" 
	d="
M223.443161,285.563629 
	C217.947617,282.661865 212.771072,280.093719 206.646927,280.241760 
	C198.187225,280.446350 191.936386,284.363647 187.957733,291.566101 
	C184.000381,298.729950 183.799362,306.243073 187.933365,313.502838 
	C191.694260,320.107391 200.042648,323.847900 206.615097,322.131012 
	C214.938477,319.956757 219.501282,314.300995 220.001068,305.644440 
	C220.300522,300.457397 219.479523,295.445740 217.209427,290.468872 
	C229.221710,291.689178 236.913864,302.528900 233.969574,313.220337 
	C229.739578,328.580475 217.021362,337.947296 201.335648,337.254822 
	C186.286346,336.590454 173.189987,324.723572 170.758575,309.021881 
	C168.543320,294.716003 173.163452,282.489136 184.304184,273.435822 
	C195.750412,264.134247 208.806900,263.093262 222.422974,268.558197 
	C230.233826,271.693176 236.986649,276.574860 243.750290,281.446014 
	C248.213104,284.660156 252.712814,287.836945 257.708954,290.188751 
	C267.322052,294.713898 278.014587,291.819183 283.127106,283.374329 
	C288.354614,274.739502 286.206024,263.241486 278.030792,256.898529 
	C273.689026,253.529861 269.160889,250.401611 264.721893,247.157898 
	C262.967834,245.876129 261.253174,244.546631 260.160736,242.603439 
	C258.363800,239.407043 258.934998,236.466217 261.350952,233.903305 
	C263.700806,231.410553 266.678528,230.840546 269.514313,232.707932 
	C277.573517,238.014923 286.011108,242.927902 292.540680,250.176743 
	C303.106476,261.906464 303.493103,281.519897 293.701843,294.067108 
	C283.442474,307.214172 266.293304,310.909088 250.986511,303.409454 
	C241.191635,298.610443 233.098953,291.228943 223.443161,285.563629 
z"/>

<path fill="#16a34a" opacity="1.000000" stroke="none" 
	d="
M323.617065,289.612061 
	C331.759338,276.241058 334.066620,261.996155 332.435211,247.018219 
	C332.154785,244.443481 332.466980,242.559296 334.324249,240.746094 
	C337.782501,237.369766 339.996613,233.107513 341.934052,228.229416 
	C352.951416,249.339081 349.259369,288.888367 322.919525,314.294708 
	C296.328613,339.943268 256.024261,342.687073 233.260330,328.794647 
	C235.072296,325.334290 236.834961,321.804016 238.751938,318.359650 
	C240.247543,315.672424 242.328262,317.421692 243.992325,318.061920 
	C255.523575,322.498016 267.432861,323.288849 279.376190,320.893066 
	C298.485779,317.059662 313.142059,306.499176 323.617065,289.612061 
z"/>

<path fill="#16a34a" opacity="1.000000" stroke="none" 
	d="
M812.661499,263.000000 
	C812.661804,257.170258 812.650269,251.840485 812.666077,246.510788 
	C812.685242,240.066193 817.748718,237.075500 823.464355,240.541794 
	C825.174805,241.579117 826.057617,241.716537 827.763794,241.035889 
	C836.957397,237.368439 846.389709,239.658279 851.599304,246.652435 
	C857.335754,254.353912 857.369995,266.326080 851.676819,273.766327 
	C846.255127,280.851807 836.870361,282.835022 827.321594,278.922241 
	C826.881409,278.741852 826.408386,278.641724 825.175903,278.271484 
	C825.175903,282.136932 824.964783,285.730927 825.228760,289.289703 
	C825.567139,293.851685 823.312073,295.095245 819.243530,294.960419 
	C815.496704,294.836273 812.361511,294.840729 812.578308,289.478638 
	C812.927917,280.832123 812.665588,272.160828 812.661499,263.000000 
M838.669983,269.264740 
	C842.710449,266.321289 844.181213,262.371368 843.103149,257.529907 
	C842.287598,253.867676 840.319580,251.118927 836.399048,250.366730 
	C832.283020,249.577011 828.666565,250.529678 826.560852,254.397263 
	C824.345093,258.466858 824.271545,262.798126 827.043762,266.616180 
	C829.769653,270.370300 833.548889,271.570221 838.669983,269.264740 
z"/>
<path fill="#16a34a" opacity="1.000000" stroke="none" 
	d="
M421.354401,239.979294 
	C435.933472,237.293060 446.449249,244.179169 448.148163,257.158783 
	C448.900543,262.906952 447.972260,264.066345 442.281128,264.117615 
	C436.615509,264.168671 430.948364,264.047791 425.282776,264.099915 
	C423.533020,264.116028 421.625275,263.587860 420.076965,264.957367 
	C422.632416,270.781128 429.067200,272.564240 435.552582,269.124390 
	C437.708832,267.980713 439.337158,266.798737 441.651093,269.144867 
	C446.003387,273.557587 445.894958,275.403687 440.437164,278.398285 
	C431.400146,283.356750 418.128845,281.430359 411.784943,274.239258 
	C405.060120,266.616394 404.692047,255.390289 410.813232,247.001053 
	C413.394043,243.464020 416.954651,241.470383 421.354401,239.979294 
M434.773590,252.608902 
	C429.016296,247.125137 422.290527,248.146439 419.823059,255.172729 
	C424.434784,256.265472 429.059448,255.611465 433.637115,255.613358 
	C435.062683,255.613937 435.722839,254.701797 434.773590,252.608902 
z"/>
<path fill="#16a34a" opacity="1.000000" stroke="none" 
	d="
M768.702393,246.431793 
	C767.963196,243.589493 769.927307,242.925705 771.526917,242.148438 
	C778.918762,238.556747 786.575806,238.067337 794.315430,240.752548 
	C801.796814,243.348145 803.750488,249.665390 804.117554,256.645416 
	C804.405823,262.127869 804.205933,267.636536 804.202148,273.133575 
	C804.197510,279.890228 799.725037,283.058502 793.743347,279.762634 
	C791.435730,278.491150 790.305786,279.081421 788.597229,279.765594 
	C783.362915,281.861511 778.173523,281.728424 773.103210,279.285522 
	C768.444275,277.040802 766.053223,273.138336 766.112366,268.077332 
	C766.169739,263.157166 768.720459,259.687347 773.324341,257.632263 
	C777.750610,255.656464 782.369080,255.645523 787.043030,255.664322 
	C788.326172,255.669495 789.721375,256.024658 791.155396,254.738312 
	C790.744019,250.960510 787.771118,250.048096 784.654297,249.455261 
	C782.113464,248.971954 779.402039,249.465332 777.377991,250.704849 
	C772.207153,253.871384 770.263977,251.104614 768.702393,246.431793 
M790.455627,268.974365 
	C791.351440,267.546326 792.628174,265.531494 790.565430,264.732697 
	C787.313049,263.473206 783.685486,263.595184 780.353455,264.919128 
	C778.885498,265.502441 778.135132,266.962219 778.534485,268.643005 
	C778.966858,270.462463 780.278687,271.419281 782.075073,271.685394 
	C785.001831,272.118927 787.717102,271.699951 790.455627,268.974365 
z"/>

<path fill="#16a34a" opacity="1.000000" stroke="none" 
	d="
M681.025269,239.675735 
	C682.574646,239.987503 683.710999,240.235657 684.831360,240.542099 
	C690.945312,242.214310 691.802856,244.968735 687.960266,250.091812 
	C686.594116,251.913239 685.110596,251.394394 683.549133,250.713287 
	C680.090576,249.204758 676.489807,248.868256 672.794312,249.339966 
	C671.222656,249.540558 669.740051,250.145676 669.733154,251.995834 
	C669.727173,253.609131 671.209106,254.156540 672.467651,254.491135 
	C676.478210,255.557373 680.564575,256.351105 684.547302,257.506317 
	C688.930237,258.777557 691.667114,261.744263 692.219910,266.367126 
	C692.812744,271.324982 690.878113,275.338531 686.625366,277.775085 
	C677.428894,283.044159 668.035583,281.799561 658.823181,277.731079 
	C655.356812,276.200256 657.211060,273.586548 658.214722,271.375824 
	C659.188416,269.231110 660.058411,266.864868 663.288330,268.645905 
	C666.722717,270.539642 670.517334,271.181702 674.383301,270.998901 
	C676.382080,270.904388 679.337952,271.457794 679.471558,268.398254 
	C679.582458,265.859314 676.978882,265.736511 675.045105,265.321198 
	C671.961365,264.658905 668.841431,264.125397 665.806030,263.286835 
	C660.836731,261.913940 657.804688,258.631958 657.153259,253.449707 
	C656.593262,248.994720 659.557922,244.051910 664.113220,241.740189 
	C669.343445,239.085983 674.868469,238.462524 681.025269,239.675735 
z"/>
<path fill="#16a34a" opacity="1.000000" stroke="none" 
	d="
M384.473602,254.714661 
	C388.419037,255.603607 392.038879,256.229645 395.526459,257.290466 
	C400.042480,258.664124 402.909882,261.648132 403.289062,266.606232 
	C403.686554,271.803680 401.618347,275.850739 397.076477,278.193878 
	C388.095093,282.827393 379.031891,281.716125 370.122284,277.776611 
	C366.700500,276.263611 368.093903,273.852051 369.134827,271.503967 
	C370.239197,269.012939 371.367004,266.983582 374.663513,268.762573 
	C378.276398,270.712250 382.252014,271.171295 386.299957,270.943970 
	C388.285675,270.832428 390.347748,270.706451 391.232758,268.280792 
	C390.327209,265.760193 388.030853,265.741821 385.976318,265.290192 
	C382.734528,264.577606 379.416779,264.088745 376.278168,263.057800 
	C371.889435,261.616272 368.757385,258.928223 368.581238,253.765015 
	C368.400818,248.477051 370.059784,244.299088 374.972412,241.790878 
	C382.810791,237.788864 390.738434,238.626556 398.691895,241.372101 
	C400.951233,242.152023 402.166718,243.656860 400.782410,245.930145 
	C399.489868,248.052612 399.677826,252.205765 395.306976,250.774002 
	C391.945953,249.673035 388.572235,248.918701 385.022583,249.200333 
	C383.182861,249.346313 380.978485,249.397202 380.698975,251.676666 
	C380.442902,253.764725 382.495270,254.158020 384.473602,254.714661 
z"/>
<path fill="#16a34a" opacity="1.000000" stroke="none" 
	d="
M711.212036,239.820145 
	C718.051514,238.535690 724.236084,239.009949 729.805786,242.784149 
	C732.148560,244.371704 734.313354,246.232315 734.785583,249.280151 
	C729.251587,254.426697 728.086060,254.592484 721.960083,251.150772 
	C717.974915,248.911835 712.345825,249.946686 709.734009,253.398422 
	C706.564819,257.586792 707.102417,264.461548 710.878723,268.036377 
	C714.551392,271.513092 719.471802,271.458466 723.471130,267.896637 
	C725.985291,265.657471 733.455811,267.259613 734.660461,270.302094 
	C735.266113,271.831512 734.171875,272.819763 733.426331,273.864532 
	C728.603577,280.622406 717.864014,283.011719 708.399109,279.466705 
	C700.160645,276.381042 694.363464,267.387543 695.230530,259.093079 
	C696.254150,249.301071 701.259399,242.759903 711.212036,239.820145 
z"/>
<path fill="#16a34a" opacity="1.000000" stroke="none" 
	d="
M576.028442,258.324097 
	C575.930237,269.925507 570.400452,277.805054 561.026123,280.203979 
	C551.298767,282.693237 541.412109,278.846649 537.077942,270.444214 
	C533.109680,262.751007 533.364502,254.978333 538.492981,247.833954 
	C543.732788,240.534470 551.305725,238.463089 559.718445,240.078476 
	C568.117615,241.691238 573.636841,246.815781 575.418152,255.468903 
	C575.585693,256.283051 575.787231,257.090149 576.028442,258.324097 
M552.181274,247.346848 
	C543.952942,250.198868 540.423767,258.061035 543.783386,266.055267 
	C546.593872,272.742706 554.772339,275.539612 561.380676,272.073273 
	C566.553040,269.360168 569.055664,262.490265 567.224304,256.032196 
	C565.441467,249.745056 560.906738,246.940796 552.181274,247.346848 
z"/>
<path fill="#16a34a" opacity="1.000000" stroke="none" 
	d="
M497.097961,252.823700 
	C495.472137,248.651276 493.086975,245.153122 492.516815,241.009491 
	C498.151550,238.811935 499.956970,239.438065 502.085480,244.319626 
	C504.944183,250.875992 507.694977,257.479584 510.576904,264.025574 
	C511.288727,265.642426 511.659088,267.534485 513.713379,268.851318 
	C517.248779,260.499512 520.851257,252.324234 524.162537,244.032669 
	C525.956848,239.539566 528.815369,239.016052 532.586792,240.575806 
	C533.341980,241.844254 532.973755,242.777634 532.575562,243.704285 
	C526.665405,257.459290 520.923035,271.289795 514.782654,284.941254 
	C510.660919,294.104828 502.279114,297.322174 494.427734,293.456024 
	C491.840576,292.182037 490.920471,290.631409 492.400452,287.926208 
	C493.441956,286.022430 494.607147,285.100006 496.757935,286.371399 
	C500.050659,288.317810 503.091248,287.997162 505.775055,285.156281 
	C508.512146,282.259003 508.697693,279.250214 506.994232,275.597290 
	C503.550781,268.213165 500.485779,260.652588 497.097961,252.823700 
z"/>
<path fill="#16a34a" opacity="1.000000" stroke="none" 
	d="
M583.665161,258.948700 
	C583.669800,253.634247 583.733154,248.810059 583.656006,243.988083 
	C583.613831,241.354187 584.585144,239.966919 587.372253,239.857040 
	C590.244080,239.743805 591.821289,240.847412 591.846069,243.810776 
	C591.898987,250.130035 591.830994,256.452393 592.008789,262.767914 
	C592.212952,270.016205 595.408081,273.504608 601.616028,273.609283 
	C607.684814,273.711578 612.223999,269.572235 612.569885,263.005157 
	C612.893127,256.867645 612.736572,250.700623 612.661438,244.548157 
	C612.625366,241.592331 613.403503,239.781708 616.823792,239.813965 
	C620.139954,239.845245 621.150085,241.553131 621.134766,244.530594 
	C621.082703,254.675858 621.128845,264.821716 621.047729,274.966675 
	C621.032654,276.855927 621.579590,279.397980 619.022705,280.022797 
	C616.443115,280.653198 613.524902,281.062225 612.446106,277.078552 
	C608.573914,279.308136 604.746948,280.871918 600.529907,280.979431 
	C591.481201,281.210144 584.637390,275.066620 583.779419,265.922211 
	C583.578125,263.776764 583.694824,261.601440 583.665161,258.948700 
z"/>
<path fill="#16a34a" opacity="1.000000" stroke="none" 
	d="
M488.174194,269.958771 
	C488.177429,271.282654 488.182434,272.114258 488.177368,272.945831 
	C488.134430,280.013763 485.101227,282.160553 478.204346,280.189758 
	C476.101868,279.589020 475.780914,278.114868 475.777496,276.398315 
	C475.745422,260.431732 475.702820,244.464905 475.762848,228.498535 
	C475.781433,223.548996 479.727539,225.130875 482.408478,224.892548 
	C485.415527,224.625214 488.189453,224.843048 488.159119,229.051025 
	C488.100372,237.200104 488.158936,245.350006 488.165924,253.499573 
	C488.170471,258.821869 488.169739,264.144196 488.174194,269.958771 
z"/>
<path fill="#16a34a" opacity="1.000000" stroke="none" 
	d="
M454.653198,247.000015 
	C454.657990,240.834213 454.844513,235.160812 454.609619,229.504913 
	C454.419189,224.920624 457.294189,224.873520 460.472656,224.902557 
	C463.647858,224.931580 467.100830,224.385818 467.078369,229.336075 
	C467.007965,244.833389 466.963470,260.331299 467.030060,275.828491 
	C467.053192,281.205475 463.338348,280.173187 460.090668,280.343719 
	C456.566864,280.528778 454.476776,279.791656 454.591522,275.493896 
	C454.840607,266.168701 454.658569,256.831970 454.653198,247.000015 
z"/>
<path fill="#16a34a" opacity="1.000000" stroke="none" 
	d="
M758.757568,251.374161 
	C753.596191,253.397491 752.467163,257.459900 752.365601,262.009613 
	C752.257812,266.837891 752.241943,271.671509 752.336487,276.499847 
	C752.399170,279.698212 750.647949,280.711029 747.926941,280.268799 
	C745.054688,279.802002 740.276733,282.330444 740.104614,276.899109 
	C739.751221,265.751831 739.992065,254.584991 740.039917,243.426437 
	C740.047363,241.684891 740.505249,239.827286 742.673279,239.873459 
	C746.116272,239.946808 750.130981,238.178467 752.614319,242.613434 
	C756.298950,240.884369 760.255554,237.734406 764.134277,240.305695 
	C766.603943,241.942871 765.412415,245.961609 764.952087,248.815689 
	C764.423767,252.091019 761.185120,250.630173 758.757568,251.374161 
z"/>
<path fill="#16a34a" opacity="1.000000" stroke="none" 
	d="
M632.393799,278.421021 
	C632.153259,267.170685 632.025146,256.349518 632.009216,245.528198 
	C632.005920,243.288376 631.613831,240.571609 634.848877,239.959320 
	C637.830811,239.394913 640.214111,240.043884 640.485352,244.133743 
	C643.720093,242.022308 646.491089,240.120102 649.893127,239.819641 
	C652.009705,239.632706 654.054871,239.766556 654.177246,242.626907 
	C654.276794,244.952286 654.617554,247.066696 651.112061,247.716934 
	C643.588501,249.112488 640.699219,252.730118 640.409729,260.386780 
	C640.227417,265.210663 640.381226,270.046326 640.316650,274.875824 
	C640.238464,280.725006 638.035828,281.833954 632.393799,278.421021 
z"/>
<path fill="#16a34a" opacity="1.000000" stroke="none" 
	d="
M840.270081,311.070496 
	C850.077759,309.233917 854.258545,312.600250 854.312805,321.977417 
	C854.330139,324.966461 854.308594,327.956390 854.252808,330.944946 
	C854.223755,332.503998 853.492188,333.442566 851.786743,333.338318 
	C850.315491,333.248413 849.778381,332.303223 849.748413,331.011780 
	C849.678955,328.023651 849.692017,325.033661 849.632874,322.045197 
	C849.560425,318.383392 848.523682,315.326050 844.207397,315.091064 
	C839.771790,314.849548 837.983093,317.610992 837.682983,321.588165 
	C837.471008,324.398041 837.509888,327.226044 837.388550,330.043884 
	C837.325989,331.495880 837.575195,333.253967 835.333618,333.305084 
	C832.975525,333.358887 832.756897,331.646301 832.741272,329.897705 
	C832.699646,325.247314 832.790955,320.593842 832.653931,315.946777 
	C832.540039,312.084229 833.232544,309.516785 837.968201,311.435638 
	C838.492798,311.648193 839.247864,311.291840 840.270081,311.070496 
z"/>
<path fill="#16a34a" opacity="1.000000" stroke="none" 
	d="
M824.865967,333.166321 
	C822.537292,333.456512 821.727600,332.444031 821.722900,330.636993 
	C821.708252,324.987274 821.685669,319.337402 821.719910,313.687927 
	C821.728333,312.295959 822.068848,311.010956 823.865601,310.927704 
	C825.296448,310.861450 826.208740,311.634003 826.161194,312.955872 
	C825.919983,319.655518 827.523804,326.442352 824.865967,333.166321 
z"/>
<path fill="#16a34a" opacity="1.000000" stroke="none" 
	d="
M813.193359,333.889587 
	C810.202026,332.442139 809.709778,330.411865 811.747437,328.324371 
	C813.055969,326.983856 814.976501,327.284637 815.963257,328.950073 
	C817.538513,331.608826 816.361145,333.254486 813.193359,333.889587 
z"/>
<path fill="#16a34a" opacity="1.000000" stroke="none" 
	d="
M821.461426,302.781250 
	C823.878784,300.835602 825.786011,301.102753 826.795044,303.724091 
	C827.449280,305.423737 826.312805,306.765320 824.663635,306.971497 
	C821.883850,307.319061 820.670959,305.894104 821.461426,302.781250 
z"/>
</svg>